<?xml version="1.0" encoding="UTF-8" standalone="no"?>
<svg
   xmlns:dc="http://purl.org/dc/elements/1.1/"
   xmlns:cc="http://creativecommons.org/ns#"
   xmlns:rdf="http://www.w3.org/1999/02/22-rdf-syntax-ns#"
   xmlns:svg="http://www.w3.org/2000/svg"
   xmlns="http://www.w3.org/2000/svg"
   xmlns:sodipodi="http://sodipodi.sourceforge.net/DTD/sodipodi-0.dtd"
   xmlns:inkscape="http://www.inkscape.org/namespaces/inkscape"
   aria-hidden="true"
   data-prefix="fas"
   data-icon="download"
   class="svg-inline--fa fa-download fa-w-16"
   role="img"
   viewBox="0 0 512 512"
   version="1.1"
   id="svg4566"
   sodipodi:docname="download-solid.svg"
   inkscape:version="0.92.3 (2405546, 2018-03-11)">
  <metadata
     id="metadata4572">
    <rdf:RDF>
      <cc:Work
         rdf:about="">
        <dc:format>image/svg+xml</dc:format>
        <dc:type
           rdf:resource="http://purl.org/dc/dcmitype/StillImage" />
      </cc:Work>
    </rdf:RDF>
  </metadata>
  <defs
     id="defs4570" />
  <sodipodi:namedview
     pagecolor="#ffffff"
     bordercolor="#666666"
     borderopacity="1"
     objecttolerance="10"
     gridtolerance="10"
     guidetolerance="10"
     inkscape:pageopacity="0"
     inkscape:pageshadow="2"
     inkscape:window-width="1920"
     inkscape:window-height="1017"
     id="namedview4568"
     showgrid="false"
     inkscape:zoom="0.4609375"
     inkscape:cx="256"
     inkscape:cy="256"
     inkscape:window-x="-4"
     inkscape:window-y="-4"
     inkscape:window-maximized="1"
     inkscape:current-layer="svg4566" />
  <path
     fill="currentColor"
     d="M216 0h80c13.3 0 24 10.7 24 24v168h87.7c17.8 0 26.7 21.5 14.1 34.1L269.7 378.3c-7.5 7.5-19.8 7.5-27.3 0L90.1 226.1c-12.6-12.6-3.7-34.1 14.1-34.1H192V24c0-13.3 10.7-24 24-24zm296 376v112c0 13.3-10.7 24-24 24H24c-13.3 0-24-10.7-24-24V376c0-13.3 10.7-24 24-24h146.7l49 49c20.1 20.1 52.5 20.1 72.6 0l49-49H488c13.3 0 24 10.7 24 24zm-124 88c0-11-9-20-20-20s-20 9-20 20 9 20 20 20 20-9 20-20zm64 0c0-11-9-20-20-20s-20 9-20 20 9 20 20 20 20-9 20-20z"
     id="path4564" />
  <path
     style="fill:#00a0ff;fill-opacity:1;stroke-width:2.16949153"
     d="M 166.35259,301.38978 C 90.809168,225.84637 85.481146,220.01866 85.526206,212.98301 c 0.02653,-4.14269 1.921549,-9.97284 4.211148,-12.95589 l 4.162906,-5.42373 49.48377,-1.08475 49.48377,-1.08474 1.08474,-89.44425 1.08475,-89.444245 6.01068,-6.0133804 6.01067,-6.0133805 45.47336,-0.66380044 c 38.52628,-0.56238989 46.61411,-0.12248016 52.94033,2.87950754 14.13193,6.7060448 14.31072,8.0037828 14.31072,103.8748788 v 85.90941 h 47.82742 47.82744 l 5.3251,5.32512 c 3.77576,3.77575 5.32513,7.71148 5.32513,13.527 0,7.89646 -3.01059,11.21246 -80.84589,89.04776 -79.10639,79.10639 -81.03059,80.84589 -89.43046,80.84589 -8.39993,0 -10.32418,-1.73961 -89.4592,-80.87463 z"
     id="path4574"
     inkscape:connector-curvature="0" />
  <path
     style="fill:#00a0ff;fill-opacity:1;stroke-width:2.16949153"
     d="m 8.2440678,502.88814 -7.37627119,-7.37628 v -62.19008 c 0,-64.5849 0.44147479,-68.09908 9.47425639,-75.41591 4.190386,-3.39435 12.0072,-3.75293 82.763047,-3.79661 l 78.13561,-0.0482 25.99998,26.18985 c 28.73348,28.94332 37.23913,34.51108 55.21074,36.14068 19.87553,1.80226 29.40969,-3.72282 60.90676,-35.2957 l 26.96992,-27.03483 h 77.73451 c 49.16621,0 79.26845,0.82094 81.9084,2.2338 9.89886,5.29772 10.72729,11.15931 10.72729,75.90278 0,63.33708 -0.45707,66.91775 -9.47426,74.22196 -4.32139,3.50046 -20.53257,3.75156 -245.11558,3.79661 l -240.488131,0.0482 z M 381.15441,479.86509 c 11.00294,-8.65491 9.34517,-27.32271 -2.99292,-33.70299 -8.92171,-4.61359 -15.96614,-3.87478 -23.50011,2.46465 -5.53667,4.65879 -6.67494,7.19808 -6.67494,14.8906 0,17.85773 19.21093,27.32635 33.16797,16.34774 z m 65.24806,-1.35415 c 8.21966,-8.21967 7.95598,-20.58118 -0.62203,-29.15918 -3.66688,-3.66688 -8.65651,-6.34159 -11.83011,-6.34159 -19.79015,0 -30.08777,21.49802 -16.70704,34.87875 8.578,8.578 20.9395,8.84169 29.15918,0.62202 z"
     id="path4576"
     inkscape:connector-curvature="0" />
</svg>
