<?xml version="1.0" encoding="UTF-8" standalone="no"?>
<svg
   xmlns:dc="http://purl.org/dc/elements/1.1/"
   xmlns:cc="http://creativecommons.org/ns#"
   xmlns:rdf="http://www.w3.org/1999/02/22-rdf-syntax-ns#"
   xmlns:svg="http://www.w3.org/2000/svg"
   xmlns="http://www.w3.org/2000/svg"
   xmlns:sodipodi="http://sodipodi.sourceforge.net/DTD/sodipodi-0.dtd"
   xmlns:inkscape="http://www.inkscape.org/namespaces/inkscape"
   aria-hidden="true"
   data-prefix="fas"
   data-icon="download"
   class="svg-inline--fa fa-download fa-w-16"
   role="img"
   viewBox="0 0 512 512"
   version="1.1"
   id="svg3725"
   sodipodi:docname="download-solid.svg"
   inkscape:version="0.92.3 (2405546, 2018-03-11)">
  <metadata
     id="metadata3731">
    <rdf:RDF>
      <cc:Work
         rdf:about="">
        <dc:format>image/svg+xml</dc:format>
        <dc:type
           rdf:resource="http://purl.org/dc/dcmitype/StillImage" />
      </cc:Work>
    </rdf:RDF>
  </metadata>
  <defs
     id="defs3729" />
  <sodipodi:namedview
     pagecolor="#ffffff"
     bordercolor="#666666"
     borderopacity="1"
     objecttolerance="10"
     gridtolerance="10"
     guidetolerance="10"
     inkscape:pageopacity="0"
     inkscape:pageshadow="2"
     inkscape:window-width="1920"
     inkscape:window-height="1017"
     id="namedview3727"
     showgrid="false"
     inkscape:zoom="1.6601562"
     inkscape:cx="256"
     inkscape:cy="256"
     inkscape:window-x="-4"
     inkscape:window-y="-4"
     inkscape:window-maximized="1"
     inkscape:current-layer="svg3725" />
  <path
     fill="currentColor"
     d="M216 0h80c13.3 0 24 10.7 24 24v168h87.7c17.8 0 26.7 21.5 14.1 34.1L269.7 378.3c-7.5 7.5-19.8 7.5-27.3 0L90.1 226.1c-12.6-12.6-3.7-34.1 14.1-34.1H192V24c0-13.3 10.7-24 24-24zm296 376v112c0 13.3-10.7 24-24 24H24c-13.3 0-24-10.7-24-24V376c0-13.3 10.7-24 24-24h146.7l49 49c20.1 20.1 52.5 20.1 72.6 0l49-49H488c13.3 0 24 10.7 24 24zm-124 88c0-11-9-20-20-20s-20 9-20 20 9 20 20 20 20-9 20-20zm64 0c0-11-9-20-20-20s-20 9-20 20 9 20 20 20 20-9 20-20z"
     id="path3723" />
  <path
     style="fill:#ffffff;stroke-width:0.60235292"
     d="M 20.841412,511.41378 C 14.235505,510.55985 7.9974436,506.6127 4.2723653,500.92967 0.15567396,494.64918 0.32107291,497.73157 0.50066101,430.63978 l 0.16192723,-60.4939 1.91210676,-4.03619 c 2.4326854,-5.13506 6.3848719,-9.08725 11.519935,-11.51994 l 4.036194,-1.9121 76.167192,-0.15971 76.167194,-0.1597 26.53398,26.40317 c 15.86307,15.78485 27.94082,27.31724 30.03219,28.67609 4.59229,2.9838 11.20951,6.00911 16.07827,7.35078 5.61482,1.54727 19.77496,1.54993 25.6,0.005 5.39403,-1.43079 11.75842,-4.34663 16.63812,-7.62275 2.34575,-1.57488 14.06,-12.74975 30.08079,-28.69573 l 26.23892,-26.11637 76.174,0.1597 76.17399,0.1597 3.90238,1.92318 c 4.29347,2.11592 8.37123,5.7961 10.5666,9.53637 3.37079,5.74286 3.3173,4.55621 3.13821,69.62692 l -0.16478,59.86412 -1.92339,4.06031 c -3.60546,7.61118 -10.22938,12.49631 -18.55661,13.68546 -4.87127,0.69563 -464.761851,0.73454 -470.136468,0.0398 z M 377.1228,481.9324 c 4.31542,-2.12447 7.2894,-5.27173 9.48425,-10.03685 1.08873,-2.36369 1.36011,-4.00046 1.34033,-8.08379 -0.0214,-4.41977 -0.26493,-5.6015 -1.78058,-8.6408 -2.20174,-4.41507 -6.52801,-8.36359 -11.02041,-10.05815 -4.7644,-1.79716 -11.76227,-1.45953 -16.0838,0.77601 -3.63344,1.87959 -7.51306,5.80577 -9.37748,9.49 -2.07461,4.0996 -2.30987,11.21572 -0.5271,15.94369 2.15189,5.70687 7.97215,10.83606 14.12105,12.44438 3.76198,0.98399 9.72321,0.19404 13.84374,-1.83449 z m 64.03543,-0.1242 c 14.66568,-7.49654 14.57052,-28.38263 -0.16372,-35.92879 -4.34477,-2.22519 -11.34504,-2.55859 -16.09573,-0.7666 -4.50184,1.69812 -9.01054,5.80284 -11.14233,10.14397 -1.47736,3.00848 -1.68365,4.1081 -1.66139,8.85616 0.0219,4.66128 0.24937,5.85241 1.62311,8.49766 2.17328,4.18484 4.30215,6.59236 7.47197,8.44999 6.65897,3.90242 13.30914,4.15141 19.96809,0.74761 z"
     id="path3733"
     inkscape:connector-curvature="0" />
  <path
     style="fill:#ffffff;stroke-width:0.60235292"
     d="m 250.91045,382.91575 c -1.5072,-0.42702 -3.67567,-1.36195 -4.81882,-2.07762 -1.14315,-0.71567 -37.2228,-36.48337 -80.177,-79.48379 -54.5335,-54.59218 -78.524106,-79.00046 -79.508923,-80.89316 -1.190116,-2.28728 -1.410186,-3.60427 -1.409148,-8.43294 0.0011,-5.03871 0.192723,-6.08217 1.604097,-8.73412 2.074793,-3.89851 6.044552,-7.71579 9.83605,-9.45824 l 3.011765,-1.38412 46.523809,-0.16836 46.52381,-0.16837 0.15854,-87.18567 0.15855,-87.18566 1.95239,-3.965686 c 3.51753,-7.1447697 10.33861,-12.0466499 18.38205,-13.21001174 4.9639,-0.7179533 80.95592,-0.70416771 85.93552,0.0155895 8.04757,1.16320654 14.82571,6.19262584 18.54041,13.75709924 l 1.68374,3.428721 0.1605,87.190588 0.16049,87.19059 h 45.10311 c 43.47861,0 45.24433,0.0436 49.02363,1.21092 4.96289,1.53288 9.13163,5.14693 11.56472,10.02592 1.51926,3.04651 1.75792,4.21052 1.77167,8.64081 0.0129,4.16611 -0.25083,5.68111 -1.4158,8.13176 -2.03724,4.28558 -157.34148,159.69764 -161.55468,161.66684 -3.46992,1.62179 -9.55831,2.12365 -13.21048,1.08891 z"
     id="path3735"
     inkscape:connector-curvature="0" />
</svg>
