<?xml version="1.0" encoding="UTF-8" standalone="no"?>
<svg
   xmlns:dc="http://purl.org/dc/elements/1.1/"
   xmlns:cc="http://creativecommons.org/ns#"
   xmlns:rdf="http://www.w3.org/1999/02/22-rdf-syntax-ns#"
   xmlns:svg="http://www.w3.org/2000/svg"
   xmlns="http://www.w3.org/2000/svg"
   xmlns:sodipodi="http://sodipodi.sourceforge.net/DTD/sodipodi-0.dtd"
   xmlns:inkscape="http://www.inkscape.org/namespaces/inkscape"
   aria-hidden="true"
   data-prefix="fas"
   data-icon="share"
   class="svg-inline--fa fa-share fa-w-16"
   role="img"
   viewBox="0 0 512 512"
   version="1.1"
   id="svg4"
   sodipodi:docname="share-solid.svg"
   inkscape:version="0.92.3 (2405546, 2018-03-11)">
  <metadata
     id="metadata10">
    <rdf:RDF>
      <cc:Work
         rdf:about="">
        <dc:format>image/svg+xml</dc:format>
        <dc:type
           rdf:resource="http://purl.org/dc/dcmitype/StillImage" />
      </cc:Work>
    </rdf:RDF>
  </metadata>
  <defs
     id="defs8" />
  <sodipodi:namedview
     pagecolor="#ffffff"
     bordercolor="#666666"
     borderopacity="1"
     objecttolerance="10"
     gridtolerance="10"
     guidetolerance="10"
     inkscape:pageopacity="0"
     inkscape:pageshadow="2"
     inkscape:window-width="1920"
     inkscape:window-height="1017"
     id="namedview6"
     showgrid="false"
     inkscape:zoom="0.4609375"
     inkscape:cx="256"
     inkscape:cy="256"
     inkscape:window-x="-4"
     inkscape:window-y="-4"
     inkscape:window-maximized="1"
     inkscape:current-layer="svg4" />
  <path
     fill="currentColor"
     d="M503.691 189.836L327.687 37.851C312.281 24.546 288 35.347 288 56.015v80.053C127.371 137.907 0 170.1 0 322.326c0 61.441 39.581 122.309 83.333 154.132 13.653 9.931 33.111-2.533 28.077-18.631C66.066 312.814 132.917 274.316 288 272.085V360c0 20.7 24.3 31.453 39.687 18.164l176.004-152c11.071-9.562 11.086-26.753 0-36.328z"
     id="path2" />
  <path
     style="fill:#ffffff;stroke-width:2.16949153"
     d="M 81.011239,472.84482 C 68.603446,464.62625 47.795621,442.5702 35.837763,424.96148 5.2153585,379.86799 -5.134612,329.77189 5.5119798,278.17813 18.776639,213.89714 63.568143,172.59629 141.44103,152.84221 c 33.19375,-8.42028 98.44288,-15.98238 139.1827,-16.13068 l 9.22034,-0.0336 V 92.369844 48.061723 l 5.5545,-6.601157 c 6.61663,-7.863406 17.55468,-10.617941 25.42341,-6.402384 9.78521,5.242295 185.40394,158.310068 187.88768,163.761298 3.34406,7.33938 3.03339,13.19567 -1.05908,19.96443 -4.88856,8.08545 -183.45272,161.57974 -189.81343,163.16418 -7.65226,1.90616 -17.54878,-1.43106 -23.11173,-7.79355 -4.75337,-5.43657 -4.88135,-6.86802 -4.88135,-54.59996 v -49.01703 l -28.74576,1.51204 c -52.0105,2.73582 -84.55484,9.14823 -111.25961,21.92217 -49.913068,23.87537 -63.967067,69.6383 -44.51536,144.95183 7.06167,27.34149 6.83842,30.58909 -2.55505,37.16855 -6.82986,4.78381 -10.447424,4.24387 -21.757051,-3.24732 z"
     id="path12"
     inkscape:connector-curvature="0" />
</svg>
